<svg width="25" height="26" viewBox="0 0 25 26" fill="none" xmlns="http://www.w3.org/2000/svg">
<path fill-rule="evenodd" clip-rule="evenodd" d="M7.5 6C6.67157 6 6 6.65435 6 7.46154C6 7.52386 6.01567 7.58396 6.02344 7.64423C3.43046 8.28997 1.5 10.5847 1.5 13.3077V19.8846C1.5 20.2975 1.17377 20.6154 0.75 20.6154H0V22.0769H5.39062C5.30493 22.3077 5.25 22.5497 5.25 22.8077C5.25 24.0098 6.26624 25 7.5 25C8.73376 25 9.75 24.0098 9.75 22.8077C9.75 22.5497 9.69507 22.3077 9.60938 22.0769H15V20.6154H14.25C13.8262 20.6154 13.5 20.2975 13.5 19.8846V13.5132C13.5 10.7666 11.6176 8.31911 8.97656 7.64423C8.98433 7.58396 9 7.52386 9 7.46154C9 6.65435 8.32843 6 7.5 6ZM7.17188 8.92307C7.28099 8.91536 7.3888 8.92315 7.5 8.92307C7.54766 8.92304 7.59262 8.92167 7.64062 8.92307C10.0907 8.99472 12 11.0875 12 13.5132V19.8846C12 20.1426 12.0549 20.3846 12.1406 20.6154H2.85938C2.94507 20.3846 3 20.1426 3 19.8846V13.3077C3 10.9868 4.83364 9.08839 7.17188 8.92307ZM7.5 22.0769C7.9231 22.0769 8.25 22.3954 8.25 22.8077C8.25 23.2199 7.9231 23.5385 7.5 23.5385C7.0769 23.5385 6.75 23.2199 6.75 22.8077C6.75 22.3954 7.0769 22.0769 7.5 22.0769Z" fill="white"/>
<path fill-rule="evenodd" clip-rule="evenodd" d="M16.5 16C20.6421 16 24 12.6421 24 8.5C24 4.35786 20.6421 1 16.5 1C12.3579 1 9 4.35786 9 8.5C9 12.6421 12.3579 16 16.5 16Z" fill="#E54D4D" stroke="#37AEC1" stroke-width="2"/>
<path d="M16.2958 5.15C16.7492 5.15 17.1392 5.23333 17.4658 5.4C17.7992 5.56667 18.0525 5.79333 18.2258 6.08C18.3992 6.36667 18.4858 6.68667 18.4858 7.04C18.4858 7.42 18.4025 7.78667 18.2358 8.14C18.0758 8.48667 17.8058 8.87333 17.4258 9.3C17.0458 9.72667 16.4892 10.29 15.7558 10.99H18.6358L18.4958 12H14.3058V11.06C15.1592 10.1933 15.7692 9.55333 16.1358 9.14C16.5092 8.72 16.7725 8.36333 16.9258 8.07C17.0858 7.77 17.1658 7.46 17.1658 7.14C17.1658 6.83333 17.0758 6.59333 16.8958 6.42C16.7225 6.24667 16.4892 6.16 16.1958 6.16C15.9358 6.16 15.7058 6.21667 15.5058 6.33C15.3125 6.43667 15.1092 6.61667 14.8958 6.87L14.1158 6.25C14.6825 5.51667 15.4092 5.15 16.2958 5.15Z" fill="white"/>
</svg>
