<svg width="18" height="18" viewBox="0 0 18 18" fill="none" xmlns="http://www.w3.org/2000/svg">
<path fill-rule="evenodd" clip-rule="evenodd" d="M11.0012 0C7.14418 0 4.00243 3.14175 4.00243 6.99879C4.00243 8.67499 4.58959 10.2099 5.57716 11.4168L0 16.9939L1.00608 18L6.58323 12.4228C7.7901 13.4104 9.32501 13.9976 11.0012 13.9976C14.8582 13.9976 18 10.8558 18 6.99879C18 3.14175 14.8582 0 11.0012 0ZM11.0012 1.39976C14.1018 1.39976 16.6002 3.89824 16.6002 6.99879C16.6002 10.0993 14.1018 12.5978 11.0012 12.5978C7.90067 12.5978 5.40219 10.0993 5.40219 6.99879C5.40219 3.89824 7.90067 1.39976 11.0012 1.39976Z" fill="#2B2B2B"/>
</svg>
